<mxfile host="app.diagrams.net" modified="2023-12-01T07:39:23.701Z" agent="Mozilla/5.0 (Windows NT 10.0; Win64; x64) AppleWebKit/537.36 (KHTML, like Gecko) Chrome/119.0.0.0 Safari/537.36" etag="HRE-l1EIxluS830dDbCm" version="22.1.5" type="device" pages="3">
  <diagram id="C5RBs43oDa-KdzZeNtuy" name="Page-1">
    <mxGraphModel dx="1194" dy="1771" grid="1" gridSize="10" guides="1" tooltips="1" connect="1" arrows="1" fold="1" page="1" pageScale="1" pageWidth="827" pageHeight="1169" math="0" shadow="0">
      <root>
        <mxCell id="WIyWlLk6GJQsqaUBKTNV-0" />
        <mxCell id="WIyWlLk6GJQsqaUBKTNV-1" parent="WIyWlLk6GJQsqaUBKTNV-0" />
        <mxCell id="8k61v2Krhm6a-TZT0rJQ-13" style="edgeStyle=orthogonalEdgeStyle;rounded=0;orthogonalLoop=1;jettySize=auto;html=1;exitX=0.5;exitY=1;exitDx=0;exitDy=0;entryX=0.5;entryY=0;entryDx=0;entryDy=0;" edge="1" parent="WIyWlLk6GJQsqaUBKTNV-1" source="8k61v2Krhm6a-TZT0rJQ-14" target="8k61v2Krhm6a-TZT0rJQ-16">
          <mxGeometry relative="1" as="geometry" />
        </mxCell>
        <mxCell id="8k61v2Krhm6a-TZT0rJQ-14" value="start" style="ellipse;whiteSpace=wrap;html=1;" vertex="1" parent="WIyWlLk6GJQsqaUBKTNV-1">
          <mxGeometry x="180" y="-70" width="120" height="80" as="geometry" />
        </mxCell>
        <mxCell id="8k61v2Krhm6a-TZT0rJQ-15" style="edgeStyle=orthogonalEdgeStyle;rounded=0;orthogonalLoop=1;jettySize=auto;html=1;exitX=0.5;exitY=1;exitDx=0;exitDy=0;entryX=0.5;entryY=0;entryDx=0;entryDy=0;" edge="1" parent="WIyWlLk6GJQsqaUBKTNV-1" source="8k61v2Krhm6a-TZT0rJQ-16" target="8k61v2Krhm6a-TZT0rJQ-18">
          <mxGeometry relative="1" as="geometry" />
        </mxCell>
        <mxCell id="8k61v2Krhm6a-TZT0rJQ-16" value="a" style="shape=parallelogram;perimeter=parallelogramPerimeter;whiteSpace=wrap;html=1;fixedSize=1;" vertex="1" parent="WIyWlLk6GJQsqaUBKTNV-1">
          <mxGeometry x="180" y="50" width="120" height="60" as="geometry" />
        </mxCell>
        <mxCell id="8k61v2Krhm6a-TZT0rJQ-17" style="edgeStyle=orthogonalEdgeStyle;rounded=0;orthogonalLoop=1;jettySize=auto;html=1;exitX=0.5;exitY=1;exitDx=0;exitDy=0;entryX=0.5;entryY=0;entryDx=0;entryDy=0;" edge="1" parent="WIyWlLk6GJQsqaUBKTNV-1" source="8k61v2Krhm6a-TZT0rJQ-18" target="8k61v2Krhm6a-TZT0rJQ-20">
          <mxGeometry relative="1" as="geometry" />
        </mxCell>
        <mxCell id="8k61v2Krhm6a-TZT0rJQ-18" value="printA(&amp;amp;a)" style="rounded=0;whiteSpace=wrap;html=1;" vertex="1" parent="WIyWlLk6GJQsqaUBKTNV-1">
          <mxGeometry x="180" y="150" width="120" height="60" as="geometry" />
        </mxCell>
        <mxCell id="8k61v2Krhm6a-TZT0rJQ-19" style="edgeStyle=orthogonalEdgeStyle;rounded=0;orthogonalLoop=1;jettySize=auto;html=1;exitX=0.5;exitY=1;exitDx=0;exitDy=0;entryX=0.5;entryY=0;entryDx=0;entryDy=0;" edge="1" parent="WIyWlLk6GJQsqaUBKTNV-1" source="8k61v2Krhm6a-TZT0rJQ-20" target="8k61v2Krhm6a-TZT0rJQ-22">
          <mxGeometry relative="1" as="geometry" />
        </mxCell>
        <mxCell id="8k61v2Krhm6a-TZT0rJQ-20" value="a" style="shape=parallelogram;perimeter=parallelogramPerimeter;whiteSpace=wrap;html=1;fixedSize=1;" vertex="1" parent="WIyWlLk6GJQsqaUBKTNV-1">
          <mxGeometry x="180" y="250" width="120" height="60" as="geometry" />
        </mxCell>
        <mxCell id="8k61v2Krhm6a-TZT0rJQ-26" value="" style="edgeStyle=orthogonalEdgeStyle;rounded=0;orthogonalLoop=1;jettySize=auto;html=1;" edge="1" parent="WIyWlLk6GJQsqaUBKTNV-1" source="8k61v2Krhm6a-TZT0rJQ-22" target="8k61v2Krhm6a-TZT0rJQ-24">
          <mxGeometry relative="1" as="geometry" />
        </mxCell>
        <mxCell id="8k61v2Krhm6a-TZT0rJQ-22" value="int *pointer = &amp;amp;a" style="rounded=0;whiteSpace=wrap;html=1;" vertex="1" parent="WIyWlLk6GJQsqaUBKTNV-1">
          <mxGeometry x="180" y="350" width="120" height="60" as="geometry" />
        </mxCell>
        <mxCell id="8k61v2Krhm6a-TZT0rJQ-23" style="edgeStyle=orthogonalEdgeStyle;rounded=0;orthogonalLoop=1;jettySize=auto;html=1;exitX=1;exitY=0.5;exitDx=0;exitDy=0;entryX=0;entryY=0.5;entryDx=0;entryDy=0;" edge="1" parent="WIyWlLk6GJQsqaUBKTNV-1" source="8k61v2Krhm6a-TZT0rJQ-24" target="8k61v2Krhm6a-TZT0rJQ-25">
          <mxGeometry relative="1" as="geometry" />
        </mxCell>
        <mxCell id="8k61v2Krhm6a-TZT0rJQ-24" value="*pointer" style="shape=parallelogram;perimeter=parallelogramPerimeter;whiteSpace=wrap;html=1;fixedSize=1;" vertex="1" parent="WIyWlLk6GJQsqaUBKTNV-1">
          <mxGeometry x="390" y="350" width="120" height="60" as="geometry" />
        </mxCell>
        <mxCell id="8k61v2Krhm6a-TZT0rJQ-25" value="end" style="ellipse;whiteSpace=wrap;html=1;" vertex="1" parent="WIyWlLk6GJQsqaUBKTNV-1">
          <mxGeometry x="540" y="340" width="120" height="80" as="geometry" />
        </mxCell>
      </root>
    </mxGraphModel>
  </diagram>
  <diagram id="OMa78mz59qORLOy-jxNU" name="Trang-2">
    <mxGraphModel dx="1706" dy="2514" grid="1" gridSize="10" guides="1" tooltips="1" connect="1" arrows="1" fold="1" page="1" pageScale="1" pageWidth="1169" pageHeight="1654" math="0" shadow="0">
      <root>
        <mxCell id="0" />
        <mxCell id="1" parent="0" />
        <mxCell id="nV2ECsM-ulXvB9b5OmwW-1" value="" style="edgeStyle=orthogonalEdgeStyle;rounded=0;orthogonalLoop=1;jettySize=auto;html=1;" edge="1" parent="1" source="nV2ECsM-ulXvB9b5OmwW-2" target="nV2ECsM-ulXvB9b5OmwW-4">
          <mxGeometry relative="1" as="geometry" />
        </mxCell>
        <mxCell id="nV2ECsM-ulXvB9b5OmwW-2" value="start" style="ellipse;whiteSpace=wrap;html=1;" vertex="1" parent="1">
          <mxGeometry x="160" y="-560" width="120" height="80" as="geometry" />
        </mxCell>
        <mxCell id="nV2ECsM-ulXvB9b5OmwW-3" value="" style="edgeStyle=orthogonalEdgeStyle;rounded=0;orthogonalLoop=1;jettySize=auto;html=1;" edge="1" parent="1" source="nV2ECsM-ulXvB9b5OmwW-4" target="nV2ECsM-ulXvB9b5OmwW-6">
          <mxGeometry relative="1" as="geometry" />
        </mxCell>
        <mxCell id="nV2ECsM-ulXvB9b5OmwW-4" value="&lt;span style=&quot;background-color: rgba(255, 255, 255, 0.7); color: rgb(17, 17, 17); font-family: -apple-system, Roboto, SegoeUI, &amp;quot;Segoe UI&amp;quot;, &amp;quot;Helvetica Neue&amp;quot;, Helvetica, &amp;quot;Microsoft YaHei&amp;quot;, &amp;quot;Meiryo UI&amp;quot;, Meiryo, &amp;quot;Arial Unicode MS&amp;quot;, sans-serif; font-size: 16px; text-align: start;&quot;&gt;Declare two integer variables&lt;/span&gt;&lt;span style=&quot;background-color: rgba(255, 255, 255, 0.7); color: rgb(17, 17, 17); font-family: -apple-system, Roboto, SegoeUI, &amp;quot;Segoe UI&amp;quot;, &amp;quot;Helvetica Neue&amp;quot;, Helvetica, &amp;quot;Microsoft YaHei&amp;quot;, &amp;quot;Meiryo UI&amp;quot;, Meiryo, &amp;quot;Arial Unicode MS&amp;quot;, sans-serif; font-size: 16px; text-align: start;&quot;&gt;&amp;nbsp;&lt;/span&gt;&lt;code style=&quot;background: var(--cib-color-syntax-background-surface); color: rgb(17, 17, 17); font-size: var(--cib-type-body1-font-size); text-align: start; line-height: var(--cib-type-body1-line-height); font-variation-settings: var(--cib-type-body1-font-variation-settings); margin: 0px 2px; padding: 1px 4px; box-sizing: border-box; border: 1px solid var(--cib-color-stroke-neutral-primary); border-radius: var(--cib-border-radius-medium);&quot;&gt;a&lt;/code&gt;&lt;span style=&quot;background-color: rgba(255, 255, 255, 0.7); color: rgb(17, 17, 17); font-family: -apple-system, Roboto, SegoeUI, &amp;quot;Segoe UI&amp;quot;, &amp;quot;Helvetica Neue&amp;quot;, Helvetica, &amp;quot;Microsoft YaHei&amp;quot;, &amp;quot;Meiryo UI&amp;quot;, Meiryo, &amp;quot;Arial Unicode MS&amp;quot;, sans-serif; font-size: 16px; text-align: start;&quot;&gt;&amp;nbsp;&lt;/span&gt;&lt;span style=&quot;background-color: rgba(255, 255, 255, 0.7); color: rgb(17, 17, 17); font-family: -apple-system, Roboto, SegoeUI, &amp;quot;Segoe UI&amp;quot;, &amp;quot;Helvetica Neue&amp;quot;, Helvetica, &amp;quot;Microsoft YaHei&amp;quot;, &amp;quot;Meiryo UI&amp;quot;, Meiryo, &amp;quot;Arial Unicode MS&amp;quot;, sans-serif; font-size: 16px; text-align: start;&quot;&gt;and&lt;/span&gt;&lt;span style=&quot;background-color: rgba(255, 255, 255, 0.7); color: rgb(17, 17, 17); font-family: -apple-system, Roboto, SegoeUI, &amp;quot;Segoe UI&amp;quot;, &amp;quot;Helvetica Neue&amp;quot;, Helvetica, &amp;quot;Microsoft YaHei&amp;quot;, &amp;quot;Meiryo UI&amp;quot;, Meiryo, &amp;quot;Arial Unicode MS&amp;quot;, sans-serif; font-size: 16px; text-align: start;&quot;&gt;&amp;nbsp;&lt;/span&gt;&lt;code style=&quot;background: var(--cib-color-syntax-background-surface); color: rgb(17, 17, 17); font-size: var(--cib-type-body1-font-size); text-align: start; line-height: var(--cib-type-body1-line-height); font-variation-settings: var(--cib-type-body1-font-variation-settings); margin: 0px 2px; padding: 1px 4px; box-sizing: border-box; border: 1px solid var(--cib-color-stroke-neutral-primary); border-radius: var(--cib-border-radius-medium);&quot;&gt;b&lt;/code&gt;&lt;br&gt;&lt;br&gt;" style="shape=parallelogram;perimeter=parallelogramPerimeter;whiteSpace=wrap;html=1;fixedSize=1;" vertex="1" parent="1">
          <mxGeometry x="120" y="-390" width="200" height="70" as="geometry" />
        </mxCell>
        <mxCell id="nV2ECsM-ulXvB9b5OmwW-5" value="" style="edgeStyle=orthogonalEdgeStyle;rounded=0;orthogonalLoop=1;jettySize=auto;html=1;" edge="1" parent="1" source="nV2ECsM-ulXvB9b5OmwW-6" target="nV2ECsM-ulXvB9b5OmwW-8">
          <mxGeometry relative="1" as="geometry" />
        </mxCell>
        <mxCell id="nV2ECsM-ulXvB9b5OmwW-6" value="&lt;span style=&quot;background-color: rgba(255, 255, 255, 0.7); color: rgb(17, 17, 17); font-family: -apple-system, Roboto, SegoeUI, &amp;quot;Segoe UI&amp;quot;, &amp;quot;Helvetica Neue&amp;quot;, Helvetica, &amp;quot;Microsoft YaHei&amp;quot;, &amp;quot;Meiryo UI&amp;quot;, Meiryo, &amp;quot;Arial Unicode MS&amp;quot;, sans-serif; font-size: 16px; text-align: start;&quot;&gt;Print the values of&lt;/span&gt;&lt;span style=&quot;background-color: rgba(255, 255, 255, 0.7); color: rgb(17, 17, 17); font-family: -apple-system, Roboto, SegoeUI, &amp;quot;Segoe UI&amp;quot;, &amp;quot;Helvetica Neue&amp;quot;, Helvetica, &amp;quot;Microsoft YaHei&amp;quot;, &amp;quot;Meiryo UI&amp;quot;, Meiryo, &amp;quot;Arial Unicode MS&amp;quot;, sans-serif; font-size: 16px; text-align: start;&quot;&gt;&amp;nbsp;&lt;/span&gt;&lt;code style=&quot;background: var(--cib-color-syntax-background-surface); color: rgb(17, 17, 17); font-size: var(--cib-type-body1-font-size); text-align: start; line-height: var(--cib-type-body1-line-height); font-variation-settings: var(--cib-type-body1-font-variation-settings); margin: 0px 2px; padding: 1px 4px; box-sizing: border-box; border: 1px solid var(--cib-color-stroke-neutral-primary); border-radius: var(--cib-border-radius-medium);&quot;&gt;a&lt;/code&gt;&lt;span style=&quot;background-color: rgba(255, 255, 255, 0.7); color: rgb(17, 17, 17); font-family: -apple-system, Roboto, SegoeUI, &amp;quot;Segoe UI&amp;quot;, &amp;quot;Helvetica Neue&amp;quot;, Helvetica, &amp;quot;Microsoft YaHei&amp;quot;, &amp;quot;Meiryo UI&amp;quot;, Meiryo, &amp;quot;Arial Unicode MS&amp;quot;, sans-serif; font-size: 16px; text-align: start;&quot;&gt;&amp;nbsp;&lt;/span&gt;&lt;span style=&quot;background-color: rgba(255, 255, 255, 0.7); color: rgb(17, 17, 17); font-family: -apple-system, Roboto, SegoeUI, &amp;quot;Segoe UI&amp;quot;, &amp;quot;Helvetica Neue&amp;quot;, Helvetica, &amp;quot;Microsoft YaHei&amp;quot;, &amp;quot;Meiryo UI&amp;quot;, Meiryo, &amp;quot;Arial Unicode MS&amp;quot;, sans-serif; font-size: 16px; text-align: start;&quot;&gt;and&lt;/span&gt;&lt;span style=&quot;background-color: rgba(255, 255, 255, 0.7); color: rgb(17, 17, 17); font-family: -apple-system, Roboto, SegoeUI, &amp;quot;Segoe UI&amp;quot;, &amp;quot;Helvetica Neue&amp;quot;, Helvetica, &amp;quot;Microsoft YaHei&amp;quot;, &amp;quot;Meiryo UI&amp;quot;, Meiryo, &amp;quot;Arial Unicode MS&amp;quot;, sans-serif; font-size: 16px; text-align: start;&quot;&gt;&amp;nbsp;&lt;/span&gt;&lt;code style=&quot;background: var(--cib-color-syntax-background-surface); color: rgb(17, 17, 17); font-size: var(--cib-type-body1-font-size); text-align: start; line-height: var(--cib-type-body1-line-height); font-variation-settings: var(--cib-type-body1-font-variation-settings); margin: 0px 2px; padding: 1px 4px; box-sizing: border-box; border: 1px solid var(--cib-color-stroke-neutral-primary); border-radius: var(--cib-border-radius-medium);&quot;&gt;b&lt;/code&gt;&lt;br&gt;&lt;br&gt;" style="whiteSpace=wrap;html=1;" vertex="1" parent="1">
          <mxGeometry x="160" y="-235" width="120" height="60" as="geometry" />
        </mxCell>
        <mxCell id="nV2ECsM-ulXvB9b5OmwW-7" value="" style="edgeStyle=orthogonalEdgeStyle;rounded=0;orthogonalLoop=1;jettySize=auto;html=1;" edge="1" parent="1" source="nV2ECsM-ulXvB9b5OmwW-8" target="nV2ECsM-ulXvB9b5OmwW-10">
          <mxGeometry relative="1" as="geometry" />
        </mxCell>
        <mxCell id="nV2ECsM-ulXvB9b5OmwW-8" value="&lt;span style=&quot;background-color: rgba(255, 255, 255, 0.7); color: rgb(17, 17, 17); font-family: -apple-system, Roboto, SegoeUI, &amp;quot;Segoe UI&amp;quot;, &amp;quot;Helvetica Neue&amp;quot;, Helvetica, &amp;quot;Microsoft YaHei&amp;quot;, &amp;quot;Meiryo UI&amp;quot;, Meiryo, &amp;quot;Arial Unicode MS&amp;quot;, sans-serif; font-size: 16px; text-align: start;&quot;&gt;Calculate and print the difference between&lt;/span&gt;&lt;span style=&quot;background-color: rgba(255, 255, 255, 0.7); color: rgb(17, 17, 17); font-family: -apple-system, Roboto, SegoeUI, &amp;quot;Segoe UI&amp;quot;, &amp;quot;Helvetica Neue&amp;quot;, Helvetica, &amp;quot;Microsoft YaHei&amp;quot;, &amp;quot;Meiryo UI&amp;quot;, Meiryo, &amp;quot;Arial Unicode MS&amp;quot;, sans-serif; font-size: 16px; text-align: start;&quot;&gt;&amp;nbsp;&lt;/span&gt;&lt;code style=&quot;background: var(--cib-color-syntax-background-surface); color: rgb(17, 17, 17); font-size: var(--cib-type-body1-font-size); text-align: start; line-height: var(--cib-type-body1-line-height); font-variation-settings: var(--cib-type-body1-font-variation-settings); margin: 0px 2px; padding: 1px 4px; box-sizing: border-box; border: 1px solid var(--cib-color-stroke-neutral-primary); border-radius: var(--cib-border-radius-medium);&quot;&gt;a&lt;/code&gt;&lt;span style=&quot;background-color: rgba(255, 255, 255, 0.7); color: rgb(17, 17, 17); font-family: -apple-system, Roboto, SegoeUI, &amp;quot;Segoe UI&amp;quot;, &amp;quot;Helvetica Neue&amp;quot;, Helvetica, &amp;quot;Microsoft YaHei&amp;quot;, &amp;quot;Meiryo UI&amp;quot;, Meiryo, &amp;quot;Arial Unicode MS&amp;quot;, sans-serif; font-size: 16px; text-align: start;&quot;&gt;&amp;nbsp;&lt;/span&gt;&lt;span style=&quot;background-color: rgba(255, 255, 255, 0.7); color: rgb(17, 17, 17); font-family: -apple-system, Roboto, SegoeUI, &amp;quot;Segoe UI&amp;quot;, &amp;quot;Helvetica Neue&amp;quot;, Helvetica, &amp;quot;Microsoft YaHei&amp;quot;, &amp;quot;Meiryo UI&amp;quot;, Meiryo, &amp;quot;Arial Unicode MS&amp;quot;, sans-serif; font-size: 16px; text-align: start;&quot;&gt;and&lt;/span&gt;&lt;span style=&quot;background-color: rgba(255, 255, 255, 0.7); color: rgb(17, 17, 17); font-family: -apple-system, Roboto, SegoeUI, &amp;quot;Segoe UI&amp;quot;, &amp;quot;Helvetica Neue&amp;quot;, Helvetica, &amp;quot;Microsoft YaHei&amp;quot;, &amp;quot;Meiryo UI&amp;quot;, Meiryo, &amp;quot;Arial Unicode MS&amp;quot;, sans-serif; font-size: 16px; text-align: start;&quot;&gt;&amp;nbsp;&lt;/span&gt;&lt;code style=&quot;background: var(--cib-color-syntax-background-surface); color: rgb(17, 17, 17); font-size: var(--cib-type-body1-font-size); text-align: start; line-height: var(--cib-type-body1-line-height); font-variation-settings: var(--cib-type-body1-font-variation-settings); margin: 0px 2px; padding: 1px 4px; box-sizing: border-box; border: 1px solid var(--cib-color-stroke-neutral-primary); border-radius: var(--cib-border-radius-medium);&quot;&gt;b&lt;/code&gt;&lt;br&gt;&lt;br&gt;" style="whiteSpace=wrap;html=1;" vertex="1" parent="1">
          <mxGeometry x="135" y="-100" width="170" height="115" as="geometry" />
        </mxCell>
        <mxCell id="nV2ECsM-ulXvB9b5OmwW-9" value="" style="edgeStyle=orthogonalEdgeStyle;rounded=0;orthogonalLoop=1;jettySize=auto;html=1;" edge="1" parent="1" source="nV2ECsM-ulXvB9b5OmwW-10" target="nV2ECsM-ulXvB9b5OmwW-12">
          <mxGeometry relative="1" as="geometry" />
        </mxCell>
        <mxCell id="nV2ECsM-ulXvB9b5OmwW-10" value="&lt;span style=&quot;background-color: rgba(255, 255, 255, 0.7); color: rgb(17, 17, 17); font-family: -apple-system, Roboto, SegoeUI, &amp;quot;Segoe UI&amp;quot;, &amp;quot;Helvetica Neue&amp;quot;, Helvetica, &amp;quot;Microsoft YaHei&amp;quot;, &amp;quot;Meiryo UI&amp;quot;, Meiryo, &amp;quot;Arial Unicode MS&amp;quot;, sans-serif; font-size: 16px; text-align: start;&quot;&gt;Declare a pointer&lt;/span&gt;&lt;span style=&quot;background-color: rgba(255, 255, 255, 0.7); color: rgb(17, 17, 17); font-family: -apple-system, Roboto, SegoeUI, &amp;quot;Segoe UI&amp;quot;, &amp;quot;Helvetica Neue&amp;quot;, Helvetica, &amp;quot;Microsoft YaHei&amp;quot;, &amp;quot;Meiryo UI&amp;quot;, Meiryo, &amp;quot;Arial Unicode MS&amp;quot;, sans-serif; font-size: 16px; text-align: start;&quot;&gt;&amp;nbsp;&lt;/span&gt;&lt;code style=&quot;background: var(--cib-color-syntax-background-surface); color: rgb(17, 17, 17); font-size: var(--cib-type-body1-font-size); text-align: start; line-height: var(--cib-type-body1-line-height); font-variation-settings: var(--cib-type-body1-font-variation-settings); margin: 0px 2px; padding: 1px 4px; box-sizing: border-box; border: 1px solid var(--cib-color-stroke-neutral-primary); border-radius: var(--cib-border-radius-medium);&quot;&gt;ptr&lt;/code&gt;&lt;br&gt;&lt;br&gt;" style="shape=parallelogram;perimeter=parallelogramPerimeter;whiteSpace=wrap;html=1;fixedSize=1;" vertex="1" parent="1">
          <mxGeometry x="110" y="107.5" width="220" height="90" as="geometry" />
        </mxCell>
        <mxCell id="nV2ECsM-ulXvB9b5OmwW-11" value="" style="edgeStyle=orthogonalEdgeStyle;rounded=0;orthogonalLoop=1;jettySize=auto;html=1;" edge="1" parent="1" source="nV2ECsM-ulXvB9b5OmwW-12" target="nV2ECsM-ulXvB9b5OmwW-14">
          <mxGeometry relative="1" as="geometry" />
        </mxCell>
        <mxCell id="nV2ECsM-ulXvB9b5OmwW-12" value="&lt;span style=&quot;background-color: rgba(255, 255, 255, 0.7); color: rgb(17, 17, 17); font-family: -apple-system, Roboto, SegoeUI, &amp;quot;Segoe UI&amp;quot;, &amp;quot;Helvetica Neue&amp;quot;, Helvetica, &amp;quot;Microsoft YaHei&amp;quot;, &amp;quot;Meiryo UI&amp;quot;, Meiryo, &amp;quot;Arial Unicode MS&amp;quot;, sans-serif; font-size: 16px; text-align: start;&quot;&gt;Assign&lt;/span&gt;&lt;span style=&quot;background-color: rgba(255, 255, 255, 0.7); color: rgb(17, 17, 17); font-family: -apple-system, Roboto, SegoeUI, &amp;quot;Segoe UI&amp;quot;, &amp;quot;Helvetica Neue&amp;quot;, Helvetica, &amp;quot;Microsoft YaHei&amp;quot;, &amp;quot;Meiryo UI&amp;quot;, Meiryo, &amp;quot;Arial Unicode MS&amp;quot;, sans-serif; font-size: 16px; text-align: start;&quot;&gt;&amp;nbsp;&lt;/span&gt;&lt;code style=&quot;background: var(--cib-color-syntax-background-surface); color: rgb(17, 17, 17); font-size: var(--cib-type-body1-font-size); text-align: start; line-height: var(--cib-type-body1-line-height); font-variation-settings: var(--cib-type-body1-font-variation-settings); margin: 0px 2px; padding: 1px 4px; box-sizing: border-box; border: 1px solid var(--cib-color-stroke-neutral-primary); border-radius: var(--cib-border-radius-medium);&quot;&gt;ptr&lt;/code&gt;&lt;span style=&quot;background-color: rgba(255, 255, 255, 0.7); color: rgb(17, 17, 17); font-family: -apple-system, Roboto, SegoeUI, &amp;quot;Segoe UI&amp;quot;, &amp;quot;Helvetica Neue&amp;quot;, Helvetica, &amp;quot;Microsoft YaHei&amp;quot;, &amp;quot;Meiryo UI&amp;quot;, Meiryo, &amp;quot;Arial Unicode MS&amp;quot;, sans-serif; font-size: 16px; text-align: start;&quot;&gt;&amp;nbsp;&lt;/span&gt;&lt;span style=&quot;background-color: rgba(255, 255, 255, 0.7); color: rgb(17, 17, 17); font-family: -apple-system, Roboto, SegoeUI, &amp;quot;Segoe UI&amp;quot;, &amp;quot;Helvetica Neue&amp;quot;, Helvetica, &amp;quot;Microsoft YaHei&amp;quot;, &amp;quot;Meiryo UI&amp;quot;, Meiryo, &amp;quot;Arial Unicode MS&amp;quot;, sans-serif; font-size: 16px; text-align: start;&quot;&gt;to the address of&lt;/span&gt;&lt;span style=&quot;background-color: rgba(255, 255, 255, 0.7); color: rgb(17, 17, 17); font-family: -apple-system, Roboto, SegoeUI, &amp;quot;Segoe UI&amp;quot;, &amp;quot;Helvetica Neue&amp;quot;, Helvetica, &amp;quot;Microsoft YaHei&amp;quot;, &amp;quot;Meiryo UI&amp;quot;, Meiryo, &amp;quot;Arial Unicode MS&amp;quot;, sans-serif; font-size: 16px; text-align: start;&quot;&gt;&amp;nbsp;&lt;/span&gt;&lt;code style=&quot;background: var(--cib-color-syntax-background-surface); color: rgb(17, 17, 17); font-size: var(--cib-type-body1-font-size); text-align: start; line-height: var(--cib-type-body1-line-height); font-variation-settings: var(--cib-type-body1-font-variation-settings); margin: 0px 2px; padding: 1px 4px; box-sizing: border-box; border: 1px solid var(--cib-color-stroke-neutral-primary); border-radius: var(--cib-border-radius-medium);&quot;&gt;a&lt;/code&gt;&lt;br&gt;&lt;br&gt;" style="whiteSpace=wrap;html=1;" vertex="1" parent="1">
          <mxGeometry x="470" y="110" width="160" height="85" as="geometry" />
        </mxCell>
        <mxCell id="nV2ECsM-ulXvB9b5OmwW-13" value="" style="edgeStyle=orthogonalEdgeStyle;rounded=0;orthogonalLoop=1;jettySize=auto;html=1;" edge="1" parent="1" source="nV2ECsM-ulXvB9b5OmwW-14" target="nV2ECsM-ulXvB9b5OmwW-16">
          <mxGeometry relative="1" as="geometry" />
        </mxCell>
        <mxCell id="nV2ECsM-ulXvB9b5OmwW-14" value="&lt;br&gt;&lt;span style=&quot;color: rgb(17, 17, 17); font-family: -apple-system, Roboto, SegoeUI, &amp;quot;Segoe UI&amp;quot;, &amp;quot;Helvetica Neue&amp;quot;, Helvetica, &amp;quot;Microsoft YaHei&amp;quot;, &amp;quot;Meiryo UI&amp;quot;, Meiryo, &amp;quot;Arial Unicode MS&amp;quot;, sans-serif; font-size: 16px; font-style: normal; font-variant-ligatures: normal; font-variant-caps: normal; font-weight: 400; letter-spacing: normal; orphans: 2; text-align: left; text-indent: 0px; text-transform: none; widows: 2; word-spacing: 0px; -webkit-text-stroke-width: 0px; background-color: rgba(255, 255, 255, 0.7); text-decoration-thickness: initial; text-decoration-style: initial; text-decoration-color: initial; float: none; display: inline !important;&quot;&gt;declare a temporary variable&lt;span&gt;&amp;nbsp;&lt;/span&gt;&lt;/span&gt;&lt;code style=&quot;font-size: var(--cib-type-body1-font-size); line-height: var(--cib-type-body1-line-height); font-weight: 500; font-variation-settings: var(--cib-type-body1-font-variation-settings); margin: 0px 2px; padding: 1px 4px; box-sizing: border-box; border: 1px solid var(--cib-color-stroke-neutral-primary); border-radius: var(--cib-border-radius-medium); background: var(--cib-color-syntax-background-surface); color: rgb(17, 17, 17); font-style: normal; font-variant-ligatures: normal; font-variant-caps: normal; letter-spacing: normal; orphans: 2; text-align: left; text-indent: 0px; text-transform: none; widows: 2; word-spacing: 0px; -webkit-text-stroke-width: 0px; text-decoration-thickness: initial; text-decoration-style: initial; text-decoration-color: initial;&quot;&gt;temp&lt;/code&gt;&lt;span style=&quot;color: rgb(17, 17, 17); font-family: -apple-system, Roboto, SegoeUI, &amp;quot;Segoe UI&amp;quot;, &amp;quot;Helvetica Neue&amp;quot;, Helvetica, &amp;quot;Microsoft YaHei&amp;quot;, &amp;quot;Meiryo UI&amp;quot;, Meiryo, &amp;quot;Arial Unicode MS&amp;quot;, sans-serif; font-size: 16px; font-style: normal; font-variant-ligatures: normal; font-variant-caps: normal; font-weight: 400; letter-spacing: normal; orphans: 2; text-align: left; text-indent: 0px; text-transform: none; widows: 2; word-spacing: 0px; -webkit-text-stroke-width: 0px; background-color: rgba(255, 255, 255, 0.7); text-decoration-thickness: initial; text-decoration-style: initial; text-decoration-color: initial; float: none; display: inline !important;&quot;&gt;&lt;span&gt;&amp;nbsp;&lt;/span&gt;and assign the value of&lt;span&gt;&amp;nbsp;&lt;/span&gt;&lt;/span&gt;&lt;code style=&quot;font-size: var(--cib-type-body1-font-size); line-height: var(--cib-type-body1-line-height); font-weight: 500; font-variation-settings: var(--cib-type-body1-font-variation-settings); margin: 0px 2px; padding: 1px 4px; box-sizing: border-box; border: 1px solid var(--cib-color-stroke-neutral-primary); border-radius: var(--cib-border-radius-medium); background: var(--cib-color-syntax-background-surface); color: rgb(17, 17, 17); font-style: normal; font-variant-ligatures: normal; font-variant-caps: normal; letter-spacing: normal; orphans: 2; text-align: left; text-indent: 0px; text-transform: none; widows: 2; word-spacing: 0px; -webkit-text-stroke-width: 0px; text-decoration-thickness: initial; text-decoration-style: initial; text-decoration-color: initial;&quot;&gt;ptr&lt;/code&gt;&lt;span style=&quot;color: rgb(17, 17, 17); font-family: -apple-system, Roboto, SegoeUI, &amp;quot;Segoe UI&amp;quot;, &amp;quot;Helvetica Neue&amp;quot;, Helvetica, &amp;quot;Microsoft YaHei&amp;quot;, &amp;quot;Meiryo UI&amp;quot;, Meiryo, &amp;quot;Arial Unicode MS&amp;quot;, sans-serif; font-size: 16px; font-style: normal; font-variant-ligatures: normal; font-variant-caps: normal; font-weight: 400; letter-spacing: normal; orphans: 2; text-align: left; text-indent: 0px; text-transform: none; widows: 2; word-spacing: 0px; -webkit-text-stroke-width: 0px; background-color: rgba(255, 255, 255, 0.7); text-decoration-thickness: initial; text-decoration-style: initial; text-decoration-color: initial; float: none; display: inline !important;&quot;&gt;&lt;span&gt;&amp;nbsp;&lt;/span&gt;to&lt;span&gt;&amp;nbsp;&lt;/span&gt;&lt;/span&gt;&lt;code style=&quot;font-size: var(--cib-type-body1-font-size); line-height: var(--cib-type-body1-line-height); font-weight: 500; font-variation-settings: var(--cib-type-body1-font-variation-settings); margin: 0px 2px; padding: 1px 4px; box-sizing: border-box; border: 1px solid var(--cib-color-stroke-neutral-primary); border-radius: var(--cib-border-radius-medium); background: var(--cib-color-syntax-background-surface); color: rgb(17, 17, 17); font-style: normal; font-variant-ligatures: normal; font-variant-caps: normal; letter-spacing: normal; orphans: 2; text-align: left; text-indent: 0px; text-transform: none; widows: 2; word-spacing: 0px; -webkit-text-stroke-width: 0px; text-decoration-thickness: initial; text-decoration-style: initial; text-decoration-color: initial;&quot;&gt;temp&lt;/code&gt;&lt;br&gt;" style="whiteSpace=wrap;html=1;" vertex="1" parent="1">
          <mxGeometry x="730" y="98.75" width="160" height="107.5" as="geometry" />
        </mxCell>
        <mxCell id="nV2ECsM-ulXvB9b5OmwW-15" style="edgeStyle=orthogonalEdgeStyle;rounded=0;orthogonalLoop=1;jettySize=auto;html=1;exitX=0.5;exitY=0;exitDx=0;exitDy=0;" edge="1" parent="1" source="nV2ECsM-ulXvB9b5OmwW-16" target="nV2ECsM-ulXvB9b5OmwW-18">
          <mxGeometry relative="1" as="geometry" />
        </mxCell>
        <mxCell id="nV2ECsM-ulXvB9b5OmwW-16" value="&lt;span style=&quot;background-color: rgba(255, 255, 255, 0.7); color: rgb(17, 17, 17); font-family: -apple-system, Roboto, SegoeUI, &amp;quot;Segoe UI&amp;quot;, &amp;quot;Helvetica Neue&amp;quot;, Helvetica, &amp;quot;Microsoft YaHei&amp;quot;, &amp;quot;Meiryo UI&amp;quot;, Meiryo, &amp;quot;Arial Unicode MS&amp;quot;, sans-serif; font-size: 16px; text-align: start;&quot;&gt;Assign the value of&lt;/span&gt;&lt;span style=&quot;background-color: rgba(255, 255, 255, 0.7); color: rgb(17, 17, 17); font-family: -apple-system, Roboto, SegoeUI, &amp;quot;Segoe UI&amp;quot;, &amp;quot;Helvetica Neue&amp;quot;, Helvetica, &amp;quot;Microsoft YaHei&amp;quot;, &amp;quot;Meiryo UI&amp;quot;, Meiryo, &amp;quot;Arial Unicode MS&amp;quot;, sans-serif; font-size: 16px; text-align: start;&quot;&gt;&amp;nbsp;&lt;/span&gt;&lt;code style=&quot;background: var(--cib-color-syntax-background-surface); color: rgb(17, 17, 17); font-size: var(--cib-type-body1-font-size); text-align: start; line-height: var(--cib-type-body1-line-height); font-variation-settings: var(--cib-type-body1-font-variation-settings); margin: 0px 2px; padding: 1px 4px; box-sizing: border-box; border: 1px solid var(--cib-color-stroke-neutral-primary); border-radius: var(--cib-border-radius-medium);&quot;&gt;ptr&lt;/code&gt;&lt;span style=&quot;background-color: rgba(255, 255, 255, 0.7); color: rgb(17, 17, 17); font-family: -apple-system, Roboto, SegoeUI, &amp;quot;Segoe UI&amp;quot;, &amp;quot;Helvetica Neue&amp;quot;, Helvetica, &amp;quot;Microsoft YaHei&amp;quot;, &amp;quot;Meiryo UI&amp;quot;, Meiryo, &amp;quot;Arial Unicode MS&amp;quot;, sans-serif; font-size: 16px; text-align: start;&quot;&gt;&amp;nbsp;&lt;/span&gt;&lt;span style=&quot;background-color: rgba(255, 255, 255, 0.7); color: rgb(17, 17, 17); font-family: -apple-system, Roboto, SegoeUI, &amp;quot;Segoe UI&amp;quot;, &amp;quot;Helvetica Neue&amp;quot;, Helvetica, &amp;quot;Microsoft YaHei&amp;quot;, &amp;quot;Meiryo UI&amp;quot;, Meiryo, &amp;quot;Arial Unicode MS&amp;quot;, sans-serif; font-size: 16px; text-align: start;&quot;&gt;with the value of&lt;/span&gt;&lt;span style=&quot;background-color: rgba(255, 255, 255, 0.7); color: rgb(17, 17, 17); font-family: -apple-system, Roboto, SegoeUI, &amp;quot;Segoe UI&amp;quot;, &amp;quot;Helvetica Neue&amp;quot;, Helvetica, &amp;quot;Microsoft YaHei&amp;quot;, &amp;quot;Meiryo UI&amp;quot;, Meiryo, &amp;quot;Arial Unicode MS&amp;quot;, sans-serif; font-size: 16px; text-align: start;&quot;&gt;&amp;nbsp;&lt;/span&gt;&lt;code style=&quot;background: var(--cib-color-syntax-background-surface); color: rgb(17, 17, 17); font-size: var(--cib-type-body1-font-size); text-align: start; line-height: var(--cib-type-body1-line-height); font-variation-settings: var(--cib-type-body1-font-variation-settings); margin: 0px 2px; padding: 1px 4px; box-sizing: border-box; border: 1px solid var(--cib-color-stroke-neutral-primary); border-radius: var(--cib-border-radius-medium);&quot;&gt;b&lt;/code&gt;&lt;br&gt;&lt;br&gt;" style="whiteSpace=wrap;html=1;" vertex="1" parent="1">
          <mxGeometry x="730" y="-130" width="160" height="106.25" as="geometry" />
        </mxCell>
        <mxCell id="nV2ECsM-ulXvB9b5OmwW-17" style="edgeStyle=orthogonalEdgeStyle;rounded=0;orthogonalLoop=1;jettySize=auto;html=1;exitX=1;exitY=1;exitDx=0;exitDy=0;" edge="1" parent="1" source="nV2ECsM-ulXvB9b5OmwW-18" target="nV2ECsM-ulXvB9b5OmwW-20">
          <mxGeometry relative="1" as="geometry">
            <mxPoint x="840" y="-400" as="targetPoint" />
            <Array as="points">
              <mxPoint x="902" y="-270" />
              <mxPoint x="810" y="-270" />
              <mxPoint x="810" y="-280" />
              <mxPoint x="800" y="-280" />
              <mxPoint x="800" y="-360" />
              <mxPoint x="810" y="-360" />
              <mxPoint x="810" y="-400" />
              <mxPoint x="850" y="-400" />
            </Array>
          </mxGeometry>
        </mxCell>
        <mxCell id="nV2ECsM-ulXvB9b5OmwW-18" value="&#xa;&lt;span style=&quot;border-color: var(--border-color); font-style: normal; font-variant-ligatures: normal; font-variant-caps: normal; font-weight: 400; letter-spacing: normal; orphans: 2; text-indent: 0px; text-transform: none; widows: 2; word-spacing: 0px; -webkit-text-stroke-width: 0px; text-decoration-thickness: initial; text-decoration-style: initial; text-decoration-color: initial; background-color: rgba(255, 255, 255, 0.7); color: rgb(17, 17, 17); font-family: -apple-system, Roboto, SegoeUI, &amp;quot;Segoe UI&amp;quot;, &amp;quot;Helvetica Neue&amp;quot;, Helvetica, &amp;quot;Microsoft YaHei&amp;quot;, &amp;quot;Meiryo UI&amp;quot;, Meiryo, &amp;quot;Arial Unicode MS&amp;quot;, sans-serif; font-size: 16px; text-align: start;&quot;&gt;Print the values of&lt;/span&gt;&lt;span style=&quot;border-color: var(--border-color); font-style: normal; font-variant-ligatures: normal; font-variant-caps: normal; font-weight: 400; letter-spacing: normal; orphans: 2; text-indent: 0px; text-transform: none; widows: 2; word-spacing: 0px; -webkit-text-stroke-width: 0px; text-decoration-thickness: initial; text-decoration-style: initial; text-decoration-color: initial; background-color: rgba(255, 255, 255, 0.7); color: rgb(17, 17, 17); font-family: -apple-system, Roboto, SegoeUI, &amp;quot;Segoe UI&amp;quot;, &amp;quot;Helvetica Neue&amp;quot;, Helvetica, &amp;quot;Microsoft YaHei&amp;quot;, &amp;quot;Meiryo UI&amp;quot;, Meiryo, &amp;quot;Arial Unicode MS&amp;quot;, sans-serif; font-size: 16px; text-align: start;&quot;&gt;&amp;nbsp;&lt;/span&gt;&lt;code style=&quot;border: 1px solid var(--cib-color-stroke-neutral-primary); font-size: var(--cib-type-body1-font-size); font-style: normal; font-variant-ligatures: normal; font-variant-caps: normal; font-weight: 400; letter-spacing: normal; orphans: 2; text-indent: 0px; text-transform: none; widows: 2; word-spacing: 0px; -webkit-text-stroke-width: 0px; background: var(--cib-color-syntax-background-surface); text-decoration-thickness: initial; text-decoration-style: initial; text-decoration-color: initial; color: rgb(17, 17, 17); text-align: start; line-height: var(--cib-type-body1-line-height); font-variation-settings: var(--cib-type-body1-font-variation-settings); margin: 0px 2px; padding: 1px 4px; box-sizing: border-box; border-radius: var(--cib-border-radius-medium);&quot;&gt;a&lt;/code&gt;&lt;span style=&quot;border-color: var(--border-color); font-style: normal; font-variant-ligatures: normal; font-variant-caps: normal; font-weight: 400; letter-spacing: normal; orphans: 2; text-indent: 0px; text-transform: none; widows: 2; word-spacing: 0px; -webkit-text-stroke-width: 0px; text-decoration-thickness: initial; text-decoration-style: initial; text-decoration-color: initial; background-color: rgba(255, 255, 255, 0.7); color: rgb(17, 17, 17); font-family: -apple-system, Roboto, SegoeUI, &amp;quot;Segoe UI&amp;quot;, &amp;quot;Helvetica Neue&amp;quot;, Helvetica, &amp;quot;Microsoft YaHei&amp;quot;, &amp;quot;Meiryo UI&amp;quot;, Meiryo, &amp;quot;Arial Unicode MS&amp;quot;, sans-serif; font-size: 16px; text-align: start;&quot;&gt;&amp;nbsp;&lt;/span&gt;&lt;span style=&quot;border-color: var(--border-color); font-style: normal; font-variant-ligatures: normal; font-variant-caps: normal; font-weight: 400; letter-spacing: normal; orphans: 2; text-indent: 0px; text-transform: none; widows: 2; word-spacing: 0px; -webkit-text-stroke-width: 0px; text-decoration-thickness: initial; text-decoration-style: initial; text-decoration-color: initial; background-color: rgba(255, 255, 255, 0.7); color: rgb(17, 17, 17); font-family: -apple-system, Roboto, SegoeUI, &amp;quot;Segoe UI&amp;quot;, &amp;quot;Helvetica Neue&amp;quot;, Helvetica, &amp;quot;Microsoft YaHei&amp;quot;, &amp;quot;Meiryo UI&amp;quot;, Meiryo, &amp;quot;Arial Unicode MS&amp;quot;, sans-serif; font-size: 16px; text-align: start;&quot;&gt;and&lt;/span&gt;&lt;span style=&quot;border-color: var(--border-color); font-style: normal; font-variant-ligatures: normal; font-variant-caps: normal; font-weight: 400; letter-spacing: normal; orphans: 2; text-indent: 0px; text-transform: none; widows: 2; word-spacing: 0px; -webkit-text-stroke-width: 0px; text-decoration-thickness: initial; text-decoration-style: initial; text-decoration-color: initial; background-color: rgba(255, 255, 255, 0.7); color: rgb(17, 17, 17); font-family: -apple-system, Roboto, SegoeUI, &amp;quot;Segoe UI&amp;quot;, &amp;quot;Helvetica Neue&amp;quot;, Helvetica, &amp;quot;Microsoft YaHei&amp;quot;, &amp;quot;Meiryo UI&amp;quot;, Meiryo, &amp;quot;Arial Unicode MS&amp;quot;, sans-serif; font-size: 16px; text-align: start;&quot;&gt;&amp;nbsp;&lt;/span&gt;&lt;code style=&quot;border: 1px solid var(--cib-color-stroke-neutral-primary); font-size: var(--cib-type-body1-font-size); font-style: normal; font-variant-ligatures: normal; font-variant-caps: normal; font-weight: 400; letter-spacing: normal; orphans: 2; text-indent: 0px; text-transform: none; widows: 2; word-spacing: 0px; -webkit-text-stroke-width: 0px; background: var(--cib-color-syntax-background-surface); text-decoration-thickness: initial; text-decoration-style: initial; text-decoration-color: initial; color: rgb(17, 17, 17); text-align: start; line-height: var(--cib-type-body1-line-height); font-variation-settings: var(--cib-type-body1-font-variation-settings); margin: 0px 2px; padding: 1px 4px; box-sizing: border-box; border-radius: var(--cib-border-radius-medium);&quot;&gt;b&lt;/code&gt;&lt;span style=&quot;border-color: var(--border-color); font-style: normal; font-variant-ligatures: normal; font-variant-caps: normal; font-weight: 400; letter-spacing: normal; orphans: 2; text-indent: 0px; text-transform: none; widows: 2; word-spacing: 0px; -webkit-text-stroke-width: 0px; text-decoration-thickness: initial; text-decoration-style: initial; text-decoration-color: initial; background-color: rgba(255, 255, 255, 0.7); color: rgb(17, 17, 17); font-family: -apple-system, Roboto, SegoeUI, &amp;quot;Segoe UI&amp;quot;, &amp;quot;Helvetica Neue&amp;quot;, Helvetica, &amp;quot;Microsoft YaHei&amp;quot;, &amp;quot;Meiryo UI&amp;quot;, Meiryo, &amp;quot;Arial Unicode MS&amp;quot;, sans-serif; font-size: 16px; text-align: start;&quot;&gt;&amp;nbsp;&lt;/span&gt;&lt;span style=&quot;border-color: var(--border-color); font-style: normal; font-variant-ligatures: normal; font-variant-caps: normal; font-weight: 400; letter-spacing: normal; orphans: 2; text-indent: 0px; text-transform: none; widows: 2; word-spacing: 0px; -webkit-text-stroke-width: 0px; text-decoration-thickness: initial; text-decoration-style: initial; text-decoration-color: initial; background-color: rgba(255, 255, 255, 0.7); color: rgb(17, 17, 17); font-family: -apple-system, Roboto, SegoeUI, &amp;quot;Segoe UI&amp;quot;, &amp;quot;Helvetica Neue&amp;quot;, Helvetica, &amp;quot;Microsoft YaHei&amp;quot;, &amp;quot;Meiryo UI&amp;quot;, Meiryo, &amp;quot;Arial Unicode MS&amp;quot;, sans-serif; font-size: 16px; text-align: start;&quot;&gt;after swapping&lt;/span&gt;&lt;br style=&quot;border-color: var(--border-color); color: rgb(0, 0, 0); font-family: Helvetica; font-size: 12px; font-style: normal; font-variant-ligatures: normal; font-variant-caps: normal; font-weight: 400; letter-spacing: normal; orphans: 2; text-align: center; text-indent: 0px; text-transform: none; widows: 2; word-spacing: 0px; -webkit-text-stroke-width: 0px; background-color: rgb(251, 251, 251); text-decoration-thickness: initial; text-decoration-style: initial; text-decoration-color: initial;&quot;&gt;&#xa;&#xa;" style="shape=parallelogram;perimeter=parallelogramPerimeter;whiteSpace=wrap;html=1;fixedSize=1;" vertex="1" parent="1">
          <mxGeometry x="700" y="-310" width="220" height="130" as="geometry" />
        </mxCell>
        <mxCell id="nV2ECsM-ulXvB9b5OmwW-19" style="edgeStyle=orthogonalEdgeStyle;rounded=0;orthogonalLoop=1;jettySize=auto;html=1;entryX=0.5;entryY=1;entryDx=0;entryDy=0;" edge="1" parent="1" source="nV2ECsM-ulXvB9b5OmwW-20" target="nV2ECsM-ulXvB9b5OmwW-21">
          <mxGeometry relative="1" as="geometry" />
        </mxCell>
        <mxCell id="nV2ECsM-ulXvB9b5OmwW-20" value="&lt;span style=&quot;background-color: rgba(255, 255, 255, 0.7); color: rgb(17, 17, 17); font-family: -apple-system, Roboto, SegoeUI, &amp;quot;Segoe UI&amp;quot;, &amp;quot;Helvetica Neue&amp;quot;, Helvetica, &amp;quot;Microsoft YaHei&amp;quot;, &amp;quot;Meiryo UI&amp;quot;, Meiryo, &amp;quot;Arial Unicode MS&amp;quot;, sans-serif; font-size: 16px; text-align: start;&quot;&gt;Calculate and print the difference between&lt;/span&gt;&lt;span style=&quot;background-color: rgba(255, 255, 255, 0.7); color: rgb(17, 17, 17); font-family: -apple-system, Roboto, SegoeUI, &amp;quot;Segoe UI&amp;quot;, &amp;quot;Helvetica Neue&amp;quot;, Helvetica, &amp;quot;Microsoft YaHei&amp;quot;, &amp;quot;Meiryo UI&amp;quot;, Meiryo, &amp;quot;Arial Unicode MS&amp;quot;, sans-serif; font-size: 16px; text-align: start;&quot;&gt;&amp;nbsp;&lt;/span&gt;&lt;code style=&quot;background: var(--cib-color-syntax-background-surface); color: rgb(17, 17, 17); font-size: var(--cib-type-body1-font-size); text-align: start; line-height: var(--cib-type-body1-line-height); font-variation-settings: var(--cib-type-body1-font-variation-settings); margin: 0px 2px; padding: 1px 4px; box-sizing: border-box; border: 1px solid var(--cib-color-stroke-neutral-primary); border-radius: var(--cib-border-radius-medium);&quot;&gt;a&lt;/code&gt;&lt;span style=&quot;background-color: rgba(255, 255, 255, 0.7); color: rgb(17, 17, 17); font-family: -apple-system, Roboto, SegoeUI, &amp;quot;Segoe UI&amp;quot;, &amp;quot;Helvetica Neue&amp;quot;, Helvetica, &amp;quot;Microsoft YaHei&amp;quot;, &amp;quot;Meiryo UI&amp;quot;, Meiryo, &amp;quot;Arial Unicode MS&amp;quot;, sans-serif; font-size: 16px; text-align: start;&quot;&gt;&amp;nbsp;&lt;/span&gt;&lt;span style=&quot;background-color: rgba(255, 255, 255, 0.7); color: rgb(17, 17, 17); font-family: -apple-system, Roboto, SegoeUI, &amp;quot;Segoe UI&amp;quot;, &amp;quot;Helvetica Neue&amp;quot;, Helvetica, &amp;quot;Microsoft YaHei&amp;quot;, &amp;quot;Meiryo UI&amp;quot;, Meiryo, &amp;quot;Arial Unicode MS&amp;quot;, sans-serif; font-size: 16px; text-align: start;&quot;&gt;and&lt;/span&gt;&lt;span style=&quot;background-color: rgba(255, 255, 255, 0.7); color: rgb(17, 17, 17); font-family: -apple-system, Roboto, SegoeUI, &amp;quot;Segoe UI&amp;quot;, &amp;quot;Helvetica Neue&amp;quot;, Helvetica, &amp;quot;Microsoft YaHei&amp;quot;, &amp;quot;Meiryo UI&amp;quot;, Meiryo, &amp;quot;Arial Unicode MS&amp;quot;, sans-serif; font-size: 16px; text-align: start;&quot;&gt;&amp;nbsp;&lt;/span&gt;&lt;code style=&quot;background: var(--cib-color-syntax-background-surface); color: rgb(17, 17, 17); font-size: var(--cib-type-body1-font-size); text-align: start; line-height: var(--cib-type-body1-line-height); font-variation-settings: var(--cib-type-body1-font-variation-settings); margin: 0px 2px; padding: 1px 4px; box-sizing: border-box; border: 1px solid var(--cib-color-stroke-neutral-primary); border-radius: var(--cib-border-radius-medium);&quot;&gt;b&lt;/code&gt;&lt;span style=&quot;background-color: rgba(255, 255, 255, 0.7); color: rgb(17, 17, 17); font-family: -apple-system, Roboto, SegoeUI, &amp;quot;Segoe UI&amp;quot;, &amp;quot;Helvetica Neue&amp;quot;, Helvetica, &amp;quot;Microsoft YaHei&amp;quot;, &amp;quot;Meiryo UI&amp;quot;, Meiryo, &amp;quot;Arial Unicode MS&amp;quot;, sans-serif; font-size: 16px; text-align: start;&quot;&gt;&amp;nbsp;&lt;/span&gt;&lt;span style=&quot;background-color: rgba(255, 255, 255, 0.7); color: rgb(17, 17, 17); font-family: -apple-system, Roboto, SegoeUI, &amp;quot;Segoe UI&amp;quot;, &amp;quot;Helvetica Neue&amp;quot;, Helvetica, &amp;quot;Microsoft YaHei&amp;quot;, &amp;quot;Meiryo UI&amp;quot;, Meiryo, &amp;quot;Arial Unicode MS&amp;quot;, sans-serif; font-size: 16px; text-align: start;&quot;&gt;after swapping&lt;/span&gt;&lt;br&gt;&lt;br&gt;" style="rounded=0;whiteSpace=wrap;html=1;" vertex="1" parent="1">
          <mxGeometry x="750" y="-560" width="240" height="110" as="geometry" />
        </mxCell>
        <mxCell id="nV2ECsM-ulXvB9b5OmwW-21" value="end" style="ellipse;whiteSpace=wrap;html=1;" vertex="1" parent="1">
          <mxGeometry x="810" y="-750" width="120" height="80" as="geometry" />
        </mxCell>
      </root>
    </mxGraphModel>
  </diagram>
  <diagram id="vIVP8EWz_T1T7dggcft4" name="Trang-3">
    <mxGraphModel dx="1194" dy="602" grid="1" gridSize="10" guides="1" tooltips="1" connect="1" arrows="1" fold="1" page="1" pageScale="1" pageWidth="1169" pageHeight="1654" math="0" shadow="0">
      <root>
        <mxCell id="0" />
        <mxCell id="1" parent="0" />
        <mxCell id="lqA96pULk5QKxwZ1YkLY-4" value="" style="edgeStyle=orthogonalEdgeStyle;rounded=0;orthogonalLoop=1;jettySize=auto;html=1;" edge="1" parent="1" source="lqA96pULk5QKxwZ1YkLY-1" target="lqA96pULk5QKxwZ1YkLY-3">
          <mxGeometry relative="1" as="geometry" />
        </mxCell>
        <mxCell id="lqA96pULk5QKxwZ1YkLY-1" value="start" style="ellipse;whiteSpace=wrap;html=1;" vertex="1" parent="1">
          <mxGeometry x="290" y="330" width="120" height="80" as="geometry" />
        </mxCell>
        <mxCell id="lqA96pULk5QKxwZ1YkLY-6" value="" style="edgeStyle=orthogonalEdgeStyle;rounded=0;orthogonalLoop=1;jettySize=auto;html=1;" edge="1" parent="1" source="lqA96pULk5QKxwZ1YkLY-3" target="lqA96pULk5QKxwZ1YkLY-5">
          <mxGeometry relative="1" as="geometry" />
        </mxCell>
        <mxCell id="lqA96pULk5QKxwZ1YkLY-3" value="int str1,str2" style="shape=parallelogram;perimeter=parallelogramPerimeter;whiteSpace=wrap;html=1;fixedSize=1;" vertex="1" parent="1">
          <mxGeometry x="290" y="470" width="120" height="60" as="geometry" />
        </mxCell>
        <mxCell id="lqA96pULk5QKxwZ1YkLY-5" value="scanf(str1,str2)" style="shape=parallelogram;perimeter=parallelogramPerimeter;whiteSpace=wrap;html=1;fixedSize=1;" vertex="1" parent="1">
          <mxGeometry x="290" y="590" width="120" height="60" as="geometry" />
        </mxCell>
        <mxCell id="lqA96pULk5QKxwZ1YkLY-9" value="" style="edgeStyle=orthogonalEdgeStyle;rounded=0;orthogonalLoop=1;jettySize=auto;html=1;" edge="1" parent="1" source="lqA96pULk5QKxwZ1YkLY-7" target="lqA96pULk5QKxwZ1YkLY-8">
          <mxGeometry relative="1" as="geometry" />
        </mxCell>
        <mxCell id="lqA96pULk5QKxwZ1YkLY-7" value="scanf(str1,str2)" style="shape=parallelogram;perimeter=parallelogramPerimeter;whiteSpace=wrap;html=1;fixedSize=1;" vertex="1" parent="1">
          <mxGeometry x="290" y="590" width="120" height="60" as="geometry" />
        </mxCell>
        <mxCell id="lqA96pULk5QKxwZ1YkLY-11" value="" style="edgeStyle=orthogonalEdgeStyle;rounded=0;orthogonalLoop=1;jettySize=auto;html=1;" edge="1" parent="1" source="lqA96pULk5QKxwZ1YkLY-8" target="lqA96pULk5QKxwZ1YkLY-10">
          <mxGeometry relative="1" as="geometry" />
        </mxCell>
        <mxCell id="lqA96pULk5QKxwZ1YkLY-8" value="*pointer" style="shape=parallelogram;perimeter=parallelogramPerimeter;whiteSpace=wrap;html=1;fixedSize=1;" vertex="1" parent="1">
          <mxGeometry x="290" y="710" width="120" height="60" as="geometry" />
        </mxCell>
        <mxCell id="lqA96pULk5QKxwZ1YkLY-13" value="" style="edgeStyle=orthogonalEdgeStyle;rounded=0;orthogonalLoop=1;jettySize=auto;html=1;" edge="1" parent="1" source="lqA96pULk5QKxwZ1YkLY-10" target="lqA96pULk5QKxwZ1YkLY-12">
          <mxGeometry relative="1" as="geometry" />
        </mxCell>
        <mxCell id="lqA96pULk5QKxwZ1YkLY-10" value="&amp;amp;str1" style="shape=parallelogram;perimeter=parallelogramPerimeter;whiteSpace=wrap;html=1;fixedSize=1;" vertex="1" parent="1">
          <mxGeometry x="280" y="827" width="120" height="60" as="geometry" />
        </mxCell>
        <mxCell id="lqA96pULk5QKxwZ1YkLY-15" value="" style="edgeStyle=orthogonalEdgeStyle;rounded=0;orthogonalLoop=1;jettySize=auto;html=1;" edge="1" parent="1" source="lqA96pULk5QKxwZ1YkLY-12" target="lqA96pULk5QKxwZ1YkLY-14">
          <mxGeometry relative="1" as="geometry" />
        </mxCell>
        <mxCell id="lqA96pULk5QKxwZ1YkLY-12" value="compare lenght (str1,str2)" style="shape=parallelogram;perimeter=parallelogramPerimeter;whiteSpace=wrap;html=1;fixedSize=1;" vertex="1" parent="1">
          <mxGeometry x="280" y="967" width="120" height="60" as="geometry" />
        </mxCell>
        <mxCell id="lqA96pULk5QKxwZ1YkLY-17" value="" style="edgeStyle=orthogonalEdgeStyle;rounded=0;orthogonalLoop=1;jettySize=auto;html=1;" edge="1" parent="1" source="lqA96pULk5QKxwZ1YkLY-14" target="lqA96pULk5QKxwZ1YkLY-16">
          <mxGeometry relative="1" as="geometry" />
        </mxCell>
        <mxCell id="lqA96pULk5QKxwZ1YkLY-14" value="printf(str longer)" style="shape=parallelogram;perimeter=parallelogramPerimeter;whiteSpace=wrap;html=1;fixedSize=1;" vertex="1" parent="1">
          <mxGeometry x="280" y="1107" width="120" height="60" as="geometry" />
        </mxCell>
        <mxCell id="lqA96pULk5QKxwZ1YkLY-16" value="end" style="ellipse;whiteSpace=wrap;html=1;" vertex="1" parent="1">
          <mxGeometry x="270" y="1240" width="120" height="80" as="geometry" />
        </mxCell>
      </root>
    </mxGraphModel>
  </diagram>
</mxfile>
